<?xml version="1.0" encoding="utf-8"?>
<!-- Generator: Adobe Illustrator 16.0.0, SVG Export Plug-In . SVG Version: 6.00 Build 0)  -->
<!DOCTYPE svg PUBLIC "-//W3C//DTD SVG 1.1//EN" "http://www.w3.org/Graphics/SVG/1.1/DTD/svg11.dtd">
<svg version="1.1" id="Layer_1" xmlns="http://www.w3.org/2000/svg" xmlns:xlink="http://www.w3.org/1999/xlink" x="0px" y="0px"
	 width="450px" height="300px" viewBox="0 0 450 300" enable-background="new 0 0 450 300" xml:space="preserve">
<g opacity="0.3">
	<path fill="#FFFFFF" d="M90.228,106.578c-1.886,0-3.765,0.647-4.995,2.139c-0.937,1.088-1.377,2.534-1.359,3.92
		c0.597,12.57,29.216,35.716,58.849,58.283c15.663,11.752,31.51,22.857,43.653,31.088c2.57-3.346,5.251-6.592,8.093-9.713
		c-28.797-29.799-85.263-85.157-104.167-85.717C90.273,106.578,90.25,106.578,90.228,106.578"/>
	<path fill="#FFFFFF" d="M43.008,193.736c-2.13,0-3.948,0.229-5.408,0.716c-1.845,0.634-3.401,1.92-4.04,3.728
		c-0.523,1.368-0.441,2.865,0.046,4.168c4.875,11.597,39.686,23.583,75.231,34.642c18.739,5.674,37.433,10.7,51.646,14.286
		c1.276-4.049,2.736-7.996,4.315-11.881C130.598,222.73,67.022,193.736,43.008,193.736"/>
	<path fill="#FFFFFF" d="M64.685,288.271c-21.985,0-40.205,1.73-46.577,6.771c-1.501,1.235-2.53,2.966-2.511,4.912
		c-0.033,1.433,0.555,2.827,1.456,3.894c5.651,6.101,23.655,7.886,45.953,7.886c11.43,0,23.99-0.478,36.592-1.064
		c19.621-1.092,38.97-2.764,53.587-4.256c-0.101-2.245-0.175-4.476-0.175-6.744c0-1.959,0.074-3.916,0.156-5.871
		C129.688,291.334,93.873,288.271,64.685,288.271"/>
	<path fill="#FFFFFF" d="M160.759,348.864c-40.132,10.007-116.617,31.29-126.56,47.386c-1.001,1.67-1.373,3.672-0.684,5.479
		c0.459,1.369,1.505,2.462,2.713,3.141c1.836,0.955,4.301,1.387,7.29,1.387c15.182,0,43.883-11.201,72.616-23.202
		c18.101-7.748,35.739-15.966,48.964-22.364C163.48,356.834,162.044,352.867,160.759,348.864"/>
	<path fill="#FFFFFF" d="M186.82,397.92c-34.242,23.101-99.035,69.365-102.882,87.93c-0.367,1.91-0.037,3.885,1.217,5.353
		c0.899,1.148,2.263,1.827,3.622,2.057c0.386,0.057,0.789,0.074,1.203,0.074c13.005,0,39.893-23.431,66.422-47.909
		c14.438-13.523,28.242-27.352,38.502-37.881C192.076,404.458,189.396,401.216,186.82,397.92"/>
	<path fill="#FFFFFF" d="M227.994,435.123c-24.248,33.364-69.426,99.121-66.671,117.916c0.299,1.9,1.291,3.663,2.984,4.618
		c0.867,0.542,1.883,0.78,2.883,0.78c0.408,0,0.812-0.037,1.207-0.11c12.275-2.772,30.12-34.971,47.192-68.079
		c8.971-17.692,17.251-35.486,23.275-48.91C235.164,439.392,231.529,437.326,227.994,435.123"/>
	<path fill="#FFFFFF" d="M279.354,455.954C267.997,495.582,248,572.962,257.016,589.71c0.956,1.679,2.461,2.983,4.389,3.286
		c0.35,0.072,0.716,0.109,1.074,0.109c1.061,0,2.111-0.32,3.002-0.854c10.569-6.802,16.324-43.16,21.043-80.098
		c2.379-19.767,4.105-39.389,5.171-54.088C287.544,457.507,283.421,456.819,279.354,455.954"/>
	<path fill="#FFFFFF" d="M347.021,455.78c-4.039,0.891-8.135,1.626-12.293,2.186c2.854,41.087,10.521,120.79,24.742,133.469
		c1.222,1.029,2.719,1.699,4.261,1.699c0.331,0,0.661-0.028,0.992-0.091c1.441-0.194,2.69-1.048,3.58-2.113
		c7.603-10.034,0.589-46.154-7.62-82.466C356.156,489.027,351.052,469.993,347.021,455.78"/>
	<path fill="#FFFFFF" d="M398.207,434.746c-3.498,2.223-7.088,4.307-10.779,6.279c16.748,37.608,51.214,109.947,68.915,116.989
		c0.826,0.312,1.699,0.478,2.553,0.478c1.028,0,2.038-0.238,2.938-0.771c1.276-0.697,2.176-1.9,2.644-3.204
		c3.709-12.028-15.251-43.566-35.366-74.894C418.194,462.888,406.855,446.718,398.207,434.746"/>
	<path fill="#FFFFFF" d="M439.156,397.524c-2.544,3.278-5.197,6.492-7.987,9.559c28.599,29.628,85.752,85.817,104.767,86.388
		c0.01,0,0.028,0,0.037,0c1.938,0,3.811-0.671,5.051-2.167c0.954-1.083,1.387-2.497,1.367-3.911
		c-0.625-12.551-29.215-35.716-58.853-58.265C467.545,417.127,451.357,405.807,439.156,397.524"/>
	<path fill="#FFFFFF" d="M465.01,348.552c-1.295,3.985-2.726,7.896-4.287,11.733c34.017,16.601,98.35,46.026,122.553,46.026
		c2.12,0,3.939-0.229,5.397-0.707c1.819-0.651,3.389-1.929,4.041-3.773c0.514-1.331,0.431-2.846-0.056-4.149
		c-4.885-11.597-39.682-23.56-75.25-34.642C498.339,357.273,479.314,352.151,465.01,348.552"/>
	<path fill="#FFFFFF" d="M563.241,288.308c-11.421,0-23.972,0.474-36.579,1.066c-19.905,1.092-39.487,2.81-54.16,4.314
		c0.065,1.979,0.147,3.985,0.147,5.981c0,2.195-0.082,4.357-0.156,6.511c23.449,2.469,59.614,5.581,89.06,5.581
		c21.988,0,40.224-1.734,46.604-6.775c1.487-1.258,2.525-2.966,2.516-4.911c0.019-1.428-0.559-2.814-1.478-3.889
		C603.548,290.099,585.544,288.308,563.241,288.308"/>
	<path fill="#FFFFFF" d="M582.751,193.787c-15.185,0-43.904,11.182-72.623,23.206c-18.234,7.78-35.991,16.067-49.24,22.48
		c1.579,3.869,3.002,7.79,4.27,11.793c40.021-9.971,116.915-31.317,126.904-47.481c0.974-1.667,1.358-3.668,0.68-5.459
		c-0.459-1.387-1.505-2.479-2.708-3.167C588.196,194.219,585.736,193.787,582.751,193.787"/>
	<path fill="#FFFFFF" d="M536.285,106.697c-12.992,0-39.894,23.431-66.428,47.922c-14.433,13.523-28.241,27.338-38.496,37.868
		c2.81,3.107,5.48,6.335,8.042,9.649c34.209-23.081,99.075-69.365,102.923-87.958c0.35-1.9,0.037-3.892-1.222-5.366
		c-0.89-1.125-2.258-1.809-3.625-2.053C537.093,106.715,536.689,106.697,536.285,106.697"/>
	<path fill="#FFFFFF" d="M459.024,41.587c-0.404,0-0.809,0.037-1.194,0.106c-12.219,2.791-30.06,34.994-47.146,68.075
		c-8.924,17.577-17.151,35.206-23.137,48.629c3.699,1.974,7.326,4.099,10.853,6.344c24.283-33.452,69.281-98.984,66.537-117.732
		c-0.322-1.91-1.305-3.677-2.966-4.632C461.09,41.827,460.044,41.587,459.024,41.587"/>
	<path fill="#FFFFFF" d="M363.859,6.909c-1.093,0-2.167,0.326-3.084,0.877c-10.569,6.812-16.315,43.162-21.035,80.107
		c-2.359,19.511-4.059,38.846-5.142,53.462c4.206,0.597,8.346,1.322,12.432,2.204c11.402-39.773,31.207-116.566,22.219-133.23
		c-0.955-1.68-2.488-3.007-4.379-3.324C364.538,6.937,364.198,6.909,363.859,6.909"/>
	<path fill="#FFFFFF" d="M262.507,6.896c-0.321,0-0.644,0.027-0.974,0.086c-1.441,0.207-2.686,1.061-3.581,2.13
		c-7.602,10.021-0.569,46.113,7.63,82.462c4.438,19.088,9.457,37.795,13.441,51.902c4.096-0.891,8.249-1.603,12.449-2.149
		c-2.909-41.312-10.558-120.133-24.697-132.725C265.573,7.571,264.067,6.896,262.507,6.896"/>
	<path fill="#FFFFFF" d="M167.296,41.537c-1.001,0-1.992,0.238-2.883,0.771c-1.258,0.689-2.176,1.901-2.636,3.214
		c-3.708,12.009,15.265,43.547,35.376,74.892c10.715,16.402,21.801,32.25,30.368,44.144c3.575-2.241,7.202-4.381,10.953-6.344
		c-16.88-37.823-50.979-109.189-68.566-116.177C169.067,41.72,168.182,41.537,167.296,41.537"/>
	<path fill="#FFFFFF" d="M313.188,4.261c-20.346,0-3.471,238.21-1.603,251.541c0.593,4.131,1.202,5.839,1.693,5.839
		c0.446,0,1.07-1.708,1.636-5.839C316.777,242.471,333.422,4.261,313.188,4.261"/>
	<path fill="#FFFFFF" d="M212.927,21.926c-0.304,0-0.596,0.045-0.877,0.146c-19.147,6.969,78.222,225.025,84.538,236.915
		c1.858,3.507,3.002,4.931,3.488,4.931c0.019,0,0.047-0.005,0.064-0.014c0.423-0.161,0.423-1.979-0.431-6.046
		C296.927,244.867,232.979,21.898,212.927,21.926"/>
	<path fill="#FFFFFF" d="M124.97,72.767c-0.752,0-1.396,0.202-1.892,0.629c-15.594,13.093,150.45,184.71,160.468,193.745
		c2.722,2.434,4.246,3.438,4.852,3.438c0.087,0,0.157-0.019,0.207-0.06c0.335-0.312-0.289-2.001-2.512-5.508
		C279.152,253.939,147.538,72.749,124.97,72.767"/>
	<path fill="#FFFFFF" d="M60.939,150.497c-1.956,0-3.287,0.509-3.911,1.584c-10.187,17.627,204.588,122.084,217.056,127.152
		c2.883,1.157,4.596,1.624,5.398,1.624c0.276,0,0.449-0.06,0.515-0.165c0.211-0.413-0.965-1.8-4.242-4.353
		C265.784,268.564,90.769,150.492,60.939,150.497"/>
	<path fill="#FFFFFF" d="M36.682,244.417c-8.892,0.01-14.294,1.257-14.809,4.168c-3.525,20.052,234.005,44.754,247.464,45.251
		c0.684,0.027,1.304,0.036,1.864,0.036c2.837,0,4.1-0.275,4.164-0.67c0.087-0.481-1.474-1.368-5.441-2.645
		C258.972,287.009,88.524,244.417,36.682,244.417"/>
	<path fill="#FFFFFF" d="M271.436,305.863c-0.629,0-1.345,0.014-2.145,0.051c-13.478,0.472-250.944,25.478-247.446,45.383
		c0.523,2.948,5.949,4.206,14.865,4.206c51.92,0,222.225-42.776,233.165-46.316c3.952-1.289,5.54-2.222,5.439-2.685
		C275.241,306.134,274.075,305.863,271.436,305.863"/>
	<path fill="#FFFFFF" d="M279.336,318.896c-0.799,0-2.525,0.469-5.381,1.652c-12.477,5.051-227.114,109.746-216.991,127.273
		c0.633,1.092,1.974,1.606,3.938,1.606c29.949,0,204.754-118.237,214.705-125.996c3.278-2.598,4.464-3.966,4.233-4.379
		C279.776,318.951,279.611,318.896,279.336,318.896"/>
	<path fill="#FFFFFF" d="M288.187,329.226c-0.588,0-2.14,1-4.843,3.461c-10.013,9.053-175.859,180.835-160.362,193.836
		c0.515,0.424,1.157,0.634,1.924,0.634c22.714,0,154.081-181.276,160.985-192.312c2.19-3.543,2.819-5.233,2.48-5.563
		C288.334,329.244,288.265,329.226,288.187,329.226"/>
	<path fill="#FFFFFF" d="M299.797,335.973c-0.474,0-1.621,1.433-3.484,4.939c-6.303,11.927-103.391,230.059-84.41,236.973
		c0.29,0.108,0.584,0.155,0.888,0.155c20.217,0,83.876-223.016,86.662-235.979c0.854-4.085,0.862-5.895,0.413-6.077
		C299.843,335.973,299.819,335.973,299.797,335.973"/>
	<path fill="#FFFFFF" d="M312.967,338.342c-0.445,0-1.093,1.736-1.634,5.858c-1.865,13.35-18.491,251.541,1.735,251.541
		c20.354,0,3.462-238.21,1.593-251.541C314.078,340.069,313.463,338.342,312.967,338.342"/>
	<path fill="#FFFFFF" d="M326.17,336.084c-0.028,0-0.046,0-0.074,0.009c-0.421,0.156-0.421,2.002,0.459,6.06
		c2.765,12.991,66.722,235.942,86.792,235.942c0.304,0,0.597-0.055,0.873-0.156c19.133-6.978-78.227-225.034-84.543-236.915
		C327.813,337.517,326.675,336.084,326.17,336.084"/>
	<path fill="#FFFFFF" d="M337.821,329.418c-0.083,0-0.138,0.02-0.184,0.056c-0.312,0.293,0.293,2.01,2.525,5.545
		c6.913,11.055,138.555,192.211,161.113,192.211c0.762,0,1.396-0.201,1.9-0.624c15.591-13.102-150.473-184.683-160.462-193.718
		C339.96,330.419,338.409,329.418,337.821,329.418"/>
	<path fill="#FFFFFF" d="M346.764,319.144c-0.275,0-0.44,0.056-0.505,0.155c-0.211,0.405,0.974,1.819,4.26,4.372
		c9.953,7.775,185.005,125.858,214.825,125.858c1.956,0,3.287-0.505,3.911-1.589c10.146-17.646-204.598-122.104-217.111-127.172
		C349.278,319.611,347.563,319.144,346.764,319.144"/>
	<path fill="#FFFFFF" d="M355.164,306.134c-2.929,0-4.224,0.285-4.306,0.671c-0.082,0.449,1.496,1.391,5.491,2.635
		c10.952,3.562,181.441,46.163,233.242,46.163c8.879,0,14.268-1.257,14.782-4.168c3.534-20.052-233.996-44.786-247.455-45.273
		C356.275,306.144,355.696,306.134,355.164,306.134"/>
	<path fill="#FFFFFF" d="M589.519,244.508c-51.921,0.011-222.188,42.764-233.133,46.308c-3.967,1.299-5.536,2.211-5.481,2.689
		c0.082,0.331,1.304,0.625,4.03,0.625c0.598,0,1.277-0.014,2.03-0.042c13.486-0.482,250.972-25.469,247.428-45.374
		C603.868,245.776,598.452,244.508,589.519,244.508"/>
	<path fill="#FFFFFF" d="M565.363,150.575c-29.996,0.009-204.754,118.237-214.697,125.996c-3.307,2.58-4.481,3.971-4.252,4.384
		c0.056,0.096,0.222,0.156,0.496,0.156c0.799,0,2.526-0.473,5.399-1.656c12.495-5.069,227.108-109.764,217.001-127.282
		C568.677,151.083,567.336,150.575,565.363,150.575"/>
	<path fill="#FFFFFF" d="M501.368,72.845c-22.742,0.009-154.081,181.277-160.985,192.322c-2.223,3.534-2.847,5.242-2.47,5.573
		c0.026,0.026,0.082,0.04,0.146,0.04c0.541,0,2.084-0.985,4.839-3.502c10.045-9.012,175.869-180.804,160.397-193.799
		C502.791,73.057,502.14,72.845,501.368,72.845"/>
	<path fill="#FFFFFF" d="M413.466,21.953c-20.207,0.028-83.88,223.015-86.672,235.989c-0.854,4.094-0.854,5.895-0.403,6.078
		c0.027,0,0.046,0.01,0.064,0.01c0.458,0,1.644-1.441,3.47-4.95c6.326-11.907,103.428-230.075,84.423-236.97
		C414.063,22.008,413.769,21.953,413.466,21.953"/>
</g>
</svg>
