<?xml version="1.0" encoding="utf-8"?>
<!-- Generator: Adobe Illustrator 16.0.0, SVG Export Plug-In . SVG Version: 6.00 Build 0)  -->
<!DOCTYPE svg PUBLIC "-//W3C//DTD SVG 1.1//EN" "http://www.w3.org/Graphics/SVG/1.1/DTD/svg11.dtd">
<svg version="1.1" id="Layer_1" xmlns="http://www.w3.org/2000/svg" xmlns:xlink="http://www.w3.org/1999/xlink" x="0px" y="0px"
	 width="450px" height="300px" viewBox="0 0 450 300" enable-background="new 0 0 450 300" xml:space="preserve">
<g opacity="0.8">
	<path fill="#FFFFFF" d="M-612.622,2.659c-1.887,0-3.766,0.651-4.998,2.148c-0.938,1.087-1.384,2.534-1.365,3.922
		c0.599,12.594,29.264,35.778,58.95,58.385c15.69,11.772,31.564,22.896,43.727,31.142c2.576-3.353,5.263-6.606,8.106-9.729
		c-28.846-29.851-85.406-85.301-104.341-85.869C-612.57,2.659-612.597,2.659-612.622,2.659"/>
	<path fill="#FFFFFF" d="M-659.921,89.971c-2.131,0-3.953,0.229-5.417,0.713c-1.848,0.639-3.405,1.925-4.044,3.738
		c-0.527,1.366-0.446,2.869,0.046,4.171c4.883,11.619,39.751,23.625,75.358,34.704c18.768,5.686,37.496,10.719,51.736,14.307
		c1.273-4.057,2.738-8.011,4.316-11.897C-572.18,119.016-635.864,89.971-659.921,89.971"/>
	<path fill="#FFFFFF" d="M-638.205,184.663c-22.022,0-40.271,1.735-46.656,6.785c-1.504,1.236-2.534,2.97-2.516,4.92
		c-0.034,1.436,0.556,2.834,1.458,3.9c5.662,6.112,23.696,7.899,46.03,7.899c11.45,0,24.031-0.479,36.656-1.065
		c19.653-1.096,39.037-2.769,53.676-4.264c-0.099-2.248-0.176-4.483-0.176-6.755c0-1.967,0.077-3.925,0.157-5.884
		C-573.093,187.732-608.968,184.663-638.205,184.663"/>
	<path fill="#FFFFFF" d="M-541.969,245.362c-40.199,10.022-116.814,31.342-126.774,47.465c-1.002,1.674-1.376,3.679-0.685,5.491
		c0.457,1.369,1.505,2.465,2.716,3.145c1.84,0.956,4.311,1.388,7.303,1.388c15.21,0,43.958-11.22,72.738-23.24
		c18.134-7.761,35.798-15.994,49.048-22.403C-539.241,253.345-540.683,249.372-541.969,245.362"/>
	<path fill="#FFFFFF" d="M-515.862,294.501c-34.298,23.139-99.206,69.483-103.058,88.079c-0.367,1.914-0.037,3.891,1.22,5.362
		c0.902,1.149,2.268,1.829,3.626,2.059c0.386,0.056,0.79,0.074,1.207,0.074c13.029,0,39.964-23.471,66.536-47.99
		c14.46-13.546,28.29-27.396,38.571-37.946C-510.598,301.05-513.285,297.803-515.862,294.501"/>
	<path fill="#FFFFFF" d="M-474.617,331.768c-24.293,33.422-69.545,99.29-66.784,118.116c0.301,1.903,1.294,3.669,2.989,4.626
		c0.869,0.543,1.884,0.781,2.887,0.781c0.41,0,0.814-0.037,1.209-0.109c12.295-2.777,30.171-35.031,47.273-68.195
		c8.985-17.723,17.281-35.547,23.314-48.992C-467.436,336.043-471.079,333.975-474.617,331.768"/>
	<path fill="#FFFFFF" d="M-423.172,352.635c-11.373,39.694-31.408,117.207-22.377,133.982c0.957,1.683,2.467,2.988,4.398,3.291
		c0.352,0.074,0.715,0.111,1.074,0.111c1.064,0,2.117-0.322,3.008-0.854c10.586-6.815,16.355-43.235,21.08-80.235
		c2.381-19.801,4.111-39.455,5.176-54.179C-414.963,354.189-419.098,353.5-423.172,352.635"/>
	<path fill="#FFFFFF" d="M-355.389,352.46c-4.047,0.892-8.148,1.628-12.314,2.188c2.861,41.156,10.539,120.997,24.787,133.697
		c1.223,1.03,2.721,1.701,4.266,1.701c0.33,0,0.662-0.027,0.994-0.093c1.443-0.192,2.695-1.047,3.586-2.114
		c7.615-10.053,0.59-46.233-7.633-82.606C-346.239,385.762-351.35,366.697-355.389,352.46"/>
	<path fill="#FFFFFF" d="M-304.116,331.39c-3.504,2.226-7.1,4.313-10.797,6.291c16.775,37.671,51.301,110.134,69.031,117.188
		c0.828,0.312,1.703,0.478,2.557,0.478c1.031,0,2.043-0.239,2.943-0.772c1.279-0.698,2.182-1.903,2.65-3.21
		c3.715-12.048-15.277-43.639-35.428-75.02C-284.094,359.578-295.452,343.383-304.116,331.39"/>
	<path fill="#FFFFFF" d="M-263.098,294.104c-2.547,3.283-5.205,6.502-8,9.574c28.648,29.679,85.898,85.965,104.945,86.535
		c0.01,0,0.029,0,0.037,0c1.941,0,3.818-0.672,5.059-2.171c0.957-1.085,1.389-2.502,1.371-3.918
		c-0.625-12.572-29.266-35.776-58.953-58.363C-234.661,313.741-250.875,302.4-263.098,294.104"/>
	<path fill="#FFFFFF" d="M-237.198,245.049c-1.297,3.991-2.73,7.909-4.295,11.754c34.074,16.627,98.518,46.104,122.76,46.104
		c2.125,0,3.947-0.229,5.41-0.708c1.818-0.652,3.393-1.931,4.045-3.78c0.516-1.334,0.434-2.85-0.055-4.156
		c-4.893-11.616-39.75-23.6-75.379-34.7C-203.813,253.786-222.87,248.653-237.198,245.049"/>
	<path fill="#FFFFFF" d="M-138.799,184.705c-11.441,0-24.014,0.472-36.643,1.064c-19.938,1.096-39.555,2.815-54.252,4.322
		c0.064,1.982,0.146,3.99,0.146,5.992c0,2.198-0.082,4.364-0.154,6.521c23.488,2.475,59.715,5.591,89.209,5.591
		c22.027,0,40.293-1.738,46.686-6.787c1.49-1.259,2.527-2.971,2.518-4.92c0.02-1.432-0.559-2.816-1.48-3.893
		C-98.424,186.494-116.461,184.705-138.799,184.705"/>
	<path fill="#FFFFFF" d="M-119.256,90.021c-15.213,0-43.979,11.2-72.748,23.242c-18.266,7.796-36.053,16.099-49.324,22.521
		c1.582,3.878,3.008,7.804,4.277,11.811c40.09-9.987,117.113-31.37,127.121-47.558c0.975-1.672,1.361-3.674,0.68-5.469
		c-0.459-1.389-1.508-2.48-2.713-3.173C-113.801,90.452-116.268,90.021-119.256,90.021"/>
	<path fill="#FFFFFF" d="M-165.801,2.779c-13.014,0-39.961,23.474-66.541,48.005c-14.457,13.548-28.291,27.382-38.562,37.932
		c2.812,3.115,5.49,6.351,8.055,9.667c34.27-23.117,99.246-69.483,103.1-88.108c0.35-1.9,0.035-3.899-1.225-5.374
		c-0.891-1.129-2.26-1.811-3.631-2.053C-164.993,2.802-165.397,2.779-165.801,2.779"/>
	<path fill="#FFFFFF" d="M-243.194-62.438c-0.406,0-0.811,0.036-1.197,0.108c-12.24,2.795-30.109,35.052-47.227,68.188
		c-8.939,17.61-17.18,35.269-23.176,48.71c3.705,1.978,7.34,4.109,10.871,6.359c24.326-33.511,69.4-99.158,66.65-117.937
		c-0.322-1.911-1.307-3.681-2.971-4.638C-241.125-62.2-242.172-62.438-243.194-62.438"/>
	<path fill="#FFFFFF" d="M-338.522-97.176c-1.094,0-2.17,0.324-3.09,0.876c-10.586,6.826-16.344,43.235-21.07,80.244
		c-2.363,19.545-4.064,38.917-5.15,53.558c4.213,0.594,8.359,1.323,12.453,2.203c11.422-39.841,31.262-116.759,22.258-133.453
		c-0.959-1.687-2.492-3.014-4.389-3.333C-337.84-97.148-338.18-97.176-338.522-97.176"/>
	<path fill="#FFFFFF" d="M-440.045-97.189c-0.324,0-0.646,0.028-0.979,0.087c-1.443,0.205-2.689,1.061-3.586,2.134
		c-7.611,10.041-0.568,46.194,7.643,82.603c4.449,19.124,9.477,37.86,13.465,51.991c4.104-0.895,8.264-1.604,12.475-2.152
		c-2.916-41.381-10.578-120.338-24.744-132.95C-436.975-96.514-438.481-97.189-440.045-97.189"/>
	<path fill="#FFFFFF" d="M-535.418-62.487c-1.007,0-2,0.237-2.887,0.768c-1.265,0.692-2.181,1.904-2.641,3.221
		c-3.72,12.032,15.287,43.619,35.435,75.017c10.729,16.433,21.837,32.306,30.419,44.224c3.582-2.249,7.218-4.392,10.972-6.356
		c-16.911-37.888-51.069-109.376-68.684-116.375C-533.643-62.308-534.532-62.487-535.418-62.487"/>
	<path fill="#FFFFFF" d="M-389.28-99.832c-20.383,0-3.475,238.617-1.605,251.969c0.594,4.14,1.205,5.854,1.697,5.854
		c0.445,0,1.072-1.715,1.639-5.854C-385.684,138.785-369.01-99.832-389.28-99.832"/>
	<path fill="#FFFFFF" d="M-489.713-82.137c-0.303,0-0.593,0.051-0.876,0.152c-19.181,6.978,78.352,225.406,84.678,237.317
		c1.865,3.512,3.01,4.938,3.494,4.938c0.025,0,0.047-0.005,0.072-0.014c0.418-0.161,0.418-1.982-0.439-6.056
		C-405.565,141.185-469.625-82.164-489.713-82.137"/>
	<path fill="#FFFFFF" d="M-577.815-31.206c-0.759,0-1.397,0.202-1.899,0.628c-15.618,13.117,150.71,185.024,160.744,194.08
		c2.727,2.434,4.25,3.442,4.857,3.442c0.09,0,0.156-0.019,0.209-0.063c0.334-0.311-0.291-2.004-2.516-5.517
		C-423.37,150.273-555.21-31.224-577.815-31.206"/>
	<path fill="#FFFFFF" d="M-641.959,46.656c-1.958,0-3.294,0.507-3.915,1.586C-656.081,65.9-440.94,170.537-428.452,175.611
		c2.887,1.158,4.605,1.626,5.408,1.626c0.279,0,0.451-0.059,0.516-0.16c0.213-0.42-0.965-1.805-4.248-4.36
		C-436.766,164.922-612.079,46.651-641.959,46.656"/>
	<path fill="#FFFFFF" d="M-666.258,140.738c-8.905,0.005-14.317,1.258-14.831,4.176c-3.537,20.083,234.399,44.828,247.883,45.328
		c0.688,0.024,1.307,0.033,1.869,0.033c2.844,0,4.105-0.274,4.17-0.669c0.086-0.484-1.475-1.374-5.447-2.649
		C-443.588,183.4-614.324,140.738-666.258,140.738"/>
	<path fill="#FFFFFF" d="M-431.102,202.287c-0.631,0-1.346,0.014-2.148,0.051c-13.504,0.474-251.375,25.522-247.865,45.461
		c0.521,2.952,5.954,4.212,14.89,4.212c52.003,0,222.602-42.85,233.559-46.394c3.963-1.293,5.549-2.226,5.451-2.691
		C-427.293,202.559-428.456,202.287-431.102,202.287"/>
	<path fill="#FFFFFF" d="M-423.19,215.343c-0.797,0-2.525,0.469-5.389,1.654c-12.496,5.06-227.502,109.933-217.36,127.489
		c0.631,1.094,1.974,1.609,3.945,1.609c29.998,0,205.098-118.439,215.073-126.209c3.281-2.604,4.467-3.975,4.236-4.389
		C-422.745,215.398-422.913,215.343-423.19,215.343"/>
	<path fill="#FFFFFF" d="M-414.327,225.688c-0.588,0-2.137,1.002-4.848,3.467c-10.029,9.069-176.159,181.145-160.635,194.167
		c0.516,0.423,1.158,0.636,1.927,0.636c22.755,0,154.341-181.585,161.261-192.641c2.193-3.55,2.824-5.242,2.484-5.573
		C-414.178,225.707-414.245,225.688-414.327,225.688"/>
	<path fill="#FFFFFF" d="M-402.694,232.448c-0.473,0-1.621,1.436-3.49,4.947c-6.312,11.948-103.565,230.45-84.553,237.375
		c0.288,0.111,0.586,0.156,0.892,0.156c20.25,0,84.015-223.395,86.806-236.38c0.857-4.094,0.867-5.906,0.414-6.09
		C-402.647,232.448-402.67,232.448-402.694,232.448"/>
	<path fill="#FFFFFF" d="M-389.5,234.822c-0.445,0-1.094,1.737-1.637,5.866c-1.867,13.373-18.525,251.972,1.738,251.972
		c20.389,0,3.467-238.617,1.596-251.972C-388.387,236.551-389.004,234.822-389.5,234.822"/>
	<path fill="#FFFFFF" d="M-376.276,232.56c-0.025,0-0.045,0-0.072,0.009c-0.424,0.156-0.424,2.005,0.459,6.069
		c2.77,13.014,66.834,236.344,86.939,236.344c0.305,0,0.598-0.055,0.873-0.155c19.168-6.99-78.357-225.419-84.686-237.319
		C-374.629,233.993-375.77,232.56-376.276,232.56"/>
	<path fill="#FFFFFF" d="M-364.604,225.883c-0.082,0-0.139,0.017-0.186,0.054c-0.311,0.295,0.295,2.015,2.529,5.556
		c6.928,11.073,138.793,192.538,161.391,192.538c0.762,0,1.398-0.202,1.904-0.624c15.615-13.125-150.73-184.999-160.736-194.047
		C-362.461,226.885-364.016,225.883-364.604,225.883"/>
	<path fill="#FFFFFF" d="M-355.647,215.591c-0.275,0-0.439,0.056-0.506,0.156c-0.211,0.403,0.977,1.821,4.268,4.378
		c9.971,7.789,185.32,126.072,215.191,126.072c1.959,0,3.293-0.506,3.918-1.592c10.162-17.676-204.945-122.311-217.48-127.388
		C-353.125,216.06-354.846,215.591-355.647,215.591"/>
	<path fill="#FFFFFF" d="M-347.231,202.559c-2.934,0-4.23,0.285-4.314,0.671c-0.082,0.45,1.5,1.395,5.5,2.641
		c10.973,3.567,181.752,46.242,233.641,46.242c8.893,0,14.293-1.26,14.809-4.177c3.541-20.085-234.396-44.862-247.879-45.35
		C-346.118,202.567-346.698,202.559-347.231,202.559"/>
	<path fill="#FFFFFF" d="M-112.479,140.828c-52.008,0.01-222.566,42.837-233.529,46.383c-3.973,1.304-5.547,2.221-5.49,2.697
		c0.084,0.334,1.307,0.627,4.037,0.627c0.6,0,1.279-0.016,2.033-0.044c13.51-0.483,251.398-25.513,247.85-45.448
		C-98.102,142.095-103.53,140.828-112.479,140.828"/>
	<path fill="#FFFFFF" d="M-136.676,46.731c-30.047,0.009-205.102,118.442-215.062,126.21c-3.311,2.584-4.486,3.981-4.258,4.395
		c0.057,0.099,0.221,0.155,0.498,0.155c0.799,0,2.529-0.477,5.408-1.66c12.516-5.074,227.496-109.949,217.369-127.494
		C-133.356,47.243-134.698,46.731-136.676,46.731"/>
	<path fill="#FFFFFF" d="M-200.778-31.125c-22.781,0.005-154.344,181.583-161.262,192.644c-2.225,3.541-2.85,5.254-2.473,5.586
		c0.027,0.027,0.082,0.04,0.148,0.04c0.543,0,2.086-0.987,4.846-3.508c10.061-9.026,176.168-181.111,160.672-194.128
		C-199.352-30.919-200.004-31.125-200.778-31.125"/>
	<path fill="#FFFFFF" d="M-288.831-82.104c-20.242,0.025-84.023,223.391-86.818,236.386c-0.857,4.102-0.857,5.904-0.404,6.09
		c0.025,0.003,0.045,0.009,0.062,0.009c0.459,0,1.646-1.443,3.477-4.958c6.338-11.929,103.605-230.462,84.566-237.37
		C-288.233-82.051-288.528-82.104-288.831-82.104"/>
</g>
<g opacity="0.3">
	<path fill="#FDBD10" d="M81.298,106.103c-1.892,0-3.769,0.649-5.002,2.145c-0.939,1.091-1.385,2.541-1.367,3.93
		c0.603,12.6,29.287,35.803,58.992,58.426c15.702,11.781,31.588,22.913,43.765,31.164c2.577-3.354,5.265-6.608,8.108-9.737
		c-28.863-29.871-85.467-85.366-104.418-85.928C81.349,106.103,81.321,106.103,81.298,106.103"/>
	<path fill="#FDBD10" d="M33.962,193.475c-2.13,0-3.953,0.23-5.416,0.719c-1.85,0.635-3.415,1.924-4.05,3.736
		c-0.529,1.371-0.446,2.872,0.046,4.179c4.887,11.624,39.779,23.64,75.417,34.727c18.78,5.688,37.524,10.727,51.771,14.321
		c1.279-4.06,2.743-8.017,4.321-11.91C121.771,222.541,58.035,193.475,33.962,193.475"/>
	<path fill="#FDBD10" d="M55.697,288.238c-22.043,0-40.304,1.739-46.691,6.793c-1.51,1.237-2.54,2.973-2.522,4.924
		c-0.032,1.436,0.562,2.835,1.463,3.902c5.661,6.116,23.709,7.906,46.061,7.906c11.458,0,24.05-0.479,36.682-1.068
		c19.669-1.095,39.07-2.77,53.719-4.266c-0.097-2.25-0.176-4.486-0.176-6.76c0-1.97,0.079-3.931,0.157-5.891
		C120.856,291.312,84.956,288.238,55.697,288.238"/>
	<path fill="#FDBD10" d="M152.007,348.984c-40.23,10.032-116.908,31.366-126.876,47.501c-1.003,1.675-1.371,3.682-0.681,5.495
		c0.455,1.371,1.505,2.466,2.715,3.147c1.841,0.957,4.316,1.39,7.308,1.39c15.223,0,43.995-11.229,72.793-23.258
		c18.15-7.769,35.826-16.006,49.084-22.421C154.731,356.973,153.29,352.997,152.007,348.984"/>
	<path fill="#FDBD10" d="M178.127,398.16c-34.321,23.157-99.277,69.535-103.134,88.146c-0.364,1.915-0.037,3.894,1.22,5.366
		c0.902,1.15,2.273,1.832,3.631,2.062c0.386,0.056,0.791,0.073,1.21,0.073c13.033,0,39.991-23.488,66.581-48.025
		c14.474-13.558,28.312-27.418,38.601-37.976C183.401,404.714,180.709,401.465,178.127,398.16"/>
	<path fill="#FDBD10" d="M219.406,435.454c-24.312,33.447-69.6,99.365-66.838,118.206c0.304,1.905,1.298,3.672,2.991,4.629
		c0.874,0.544,1.887,0.783,2.89,0.783c0.414,0,0.819-0.037,1.215-0.111c12.301-2.779,30.188-35.057,47.308-68.246
		c8.992-17.736,17.295-35.573,23.332-49.029C226.595,439.734,222.945,437.663,219.406,435.454"/>
	<path fill="#FDBD10" d="M270.889,456.338c-11.381,39.725-31.432,117.295-22.394,134.082c0.958,1.685,2.472,2.992,4.404,3.295
		c0.35,0.074,0.714,0.111,1.072,0.111c1.063,0,2.122-0.322,3.01-0.856c10.594-6.82,16.369-43.268,21.1-80.295
		c2.38-19.815,4.114-39.484,5.178-54.22C279.104,457.894,274.966,457.203,270.889,456.338"/>
	<path fill="#FDBD10" d="M338.726,456.163c-4.054,0.893-8.159,1.629-12.324,2.19c2.863,41.188,10.548,121.087,24.801,133.797
		c1.229,1.031,2.729,1.703,4.274,1.703c0.332,0,0.663-0.027,0.994-0.092c1.44-0.193,2.697-1.05,3.59-2.117
		c7.616-10.06,0.584-46.268-7.64-82.669C347.879,489.49,342.767,470.411,338.726,456.163"/>
	<path fill="#FDBD10" d="M390.037,435.077c-3.511,2.228-7.105,4.316-10.805,6.296c16.788,37.699,51.339,110.216,69.084,117.275
		c0.828,0.312,1.703,0.479,2.559,0.479c1.031,0,2.044-0.239,2.945-0.773c1.279-0.699,2.177-1.904,2.65-3.212
		c3.719-12.057-15.287-43.672-35.453-75.076C410.069,463.287,398.708,447.079,390.037,435.077"/>
	<path fill="#FDBD10" d="M431.087,397.765c-2.554,3.286-5.209,6.507-8.008,9.581c28.666,29.701,85.96,86.029,105.026,86.6
		c0.009,0,0.022,0,0.036,0c1.938,0,3.82-0.672,5.058-2.172c0.957-1.086,1.395-2.504,1.376-3.921
		c-0.626-12.582-29.286-35.804-58.997-58.408C459.545,417.415,443.318,406.066,431.087,397.765"/>
	<path fill="#FDBD10" d="M457,348.671c-1.293,3.995-2.729,7.915-4.293,11.763c34.101,16.641,98.587,46.139,122.854,46.139
		c2.126,0,3.948-0.229,5.411-0.708c1.823-0.653,3.396-1.933,4.046-3.783c0.52-1.334,0.437-2.853-0.051-4.16
		c-4.896-11.624-39.784-23.617-75.436-34.726C490.415,357.415,471.345,352.279,457,348.671"/>
	<path fill="#FDBD10" d="M555.478,288.284c-11.454,0-24.036,0.47-36.668,1.063c-19.959,1.1-39.591,2.82-54.299,4.325
		c0.069,1.983,0.147,3.99,0.147,5.997c0,2.199-0.078,4.367-0.156,6.525c23.506,2.476,59.765,5.596,89.277,5.596
		c22.043,0,40.327-1.739,46.724-6.792c1.491-1.262,2.531-2.974,2.521-4.925c0.019-1.436-0.562-2.816-1.481-3.893
		C595.883,290.07,577.834,288.284,555.478,288.284"/>
	<path fill="#FDBD10" d="M575.035,193.525c-15.223,0-44.013,11.211-72.803,23.264c-18.278,7.8-36.079,16.106-49.364,22.535
		c1.587,3.88,3.01,7.81,4.284,11.822c40.12-9.995,117.202-31.395,127.216-47.598c0.976-1.671,1.362-3.677,0.677-5.472
		c-0.456-1.39-1.505-2.485-2.715-3.176C580.489,193.958,578.027,193.525,575.035,193.525"/>
	<path fill="#FDBD10" d="M528.45,106.222c-13.019,0-39.986,23.488-66.586,48.04c-14.468,13.558-28.311,27.404-38.596,37.962
		c2.82,3.115,5.499,6.351,8.062,9.673c34.293-23.139,99.323-69.535,103.18-88.173c0.35-1.905,0.032-3.902-1.224-5.38
		c-0.897-1.127-2.265-1.813-3.641-2.057C529.26,106.241,528.859,106.222,528.45,106.222"/>
	<path fill="#FDBD10" d="M451.004,40.953c-0.405,0-0.81,0.037-1.201,0.105c-12.25,2.798-30.133,35.081-47.257,68.242
		c-8.946,17.621-17.198,35.292-23.194,48.748c3.709,1.979,7.345,4.11,10.875,6.36c24.349-33.534,69.457-99.227,66.705-118.021
		c-0.322-1.914-1.308-3.686-2.973-4.643C453.07,41.192,452.025,40.953,451.004,40.953"/>
	<path fill="#FDBD10" d="M355.605,6.19c-1.095,0-2.172,0.327-3.092,0.879c-10.594,6.829-16.355,43.268-21.087,80.304
		c-2.365,19.559-4.067,38.942-5.158,53.594c4.22,0.599,8.371,1.326,12.467,2.209c11.427-39.871,31.284-116.853,22.269-133.558
		c-0.957-1.684-2.489-3.014-4.386-3.332C356.282,6.217,355.941,6.19,355.605,6.19"/>
	<path fill="#FDBD10" d="M254.004,6.176c-0.322,0-0.648,0.028-0.98,0.088c-1.44,0.207-2.691,1.063-3.589,2.135
		c-7.616,10.046-0.566,46.226,7.648,82.665c4.45,19.135,9.484,37.888,13.479,52.029c4.105-0.893,8.266-1.606,12.48-2.153
		c-2.917-41.413-10.584-120.428-24.763-133.052C257.078,6.853,255.568,6.176,254.004,6.176"/>
	<path fill="#FDBD10" d="M158.56,40.902c-1.008,0-2.002,0.239-2.89,0.773c-1.266,0.69-2.182,1.905-2.642,3.222
		c-3.723,12.039,15.297,43.654,35.463,75.076c10.736,16.443,21.85,32.329,30.437,44.253c3.59-2.246,7.226-4.391,10.98-6.36
		c-16.921-37.916-51.104-109.457-68.734-116.461C160.336,41.086,159.443,40.902,158.56,40.902"/>
	<path fill="#FDBD10" d="M304.81,3.535c-20.4,0-3.479,238.794-1.61,252.159c0.598,4.142,1.205,5.854,1.697,5.854
		c0.447,0,1.072-1.712,1.644-5.854C308.408,242.329,325.095,3.535,304.81,3.535"/>
	<path fill="#FDBD10" d="M204.299,21.243c-0.3,0-0.594,0.046-0.879,0.147c-19.19,6.986,78.412,225.578,84.744,237.497
		c1.864,3.517,3.015,4.943,3.498,4.943c0.022,0,0.046-0.005,0.068-0.015c0.424-0.161,0.424-1.983-0.437-6.061
		C288.51,244.731,224.399,21.215,204.299,21.243"/>
	<path fill="#FDBD10" d="M116.13,72.209c-0.76,0-1.399,0.203-1.9,0.63C98.597,85.964,265.049,258.004,275.09,267.061
		c2.734,2.438,4.257,3.446,4.864,3.446c0.088,0,0.157-0.019,0.207-0.06c0.336-0.312-0.289-2.007-2.513-5.522
		C270.69,253.825,138.753,72.191,116.13,72.209"/>
	<path fill="#FDBD10" d="M51.938,150.129c-1.956,0-3.295,0.511-3.917,1.587c-10.216,17.672,205.09,122.385,217.584,127.465
		c2.89,1.16,4.606,1.629,5.417,1.629c0.275,0,0.446-0.06,0.515-0.165c0.212-0.415-0.966-1.805-4.252-4.363
		C257.285,268.486,81.841,150.125,51.938,150.129"/>
	<path fill="#FDBD10" d="M27.621,244.28c-8.914,0.01-14.326,1.261-14.841,4.179c-3.539,20.102,234.575,44.864,248.067,45.366
		c0.687,0.022,1.312,0.032,1.873,0.032c2.845,0,4.105-0.271,4.17-0.667c0.087-0.488-1.473-1.381-5.449-2.655
		C250.456,286.978,79.59,244.28,27.621,244.28"/>
	<path fill="#FDBD10" d="M262.95,305.878c-0.626,0-1.344,0.014-2.145,0.05C247.29,306.402,9.24,331.469,12.752,351.423
		c0.524,2.954,5.959,4.216,14.901,4.216c52.043,0,222.771-42.881,233.733-46.43c3.967-1.293,5.555-2.227,5.458-2.691
		C266.766,306.149,265.601,305.878,262.95,305.878"/>
	<path fill="#FDBD10" d="M270.87,318.942c-0.796,0-2.526,0.47-5.389,1.657c-12.508,5.062-227.677,110.014-217.525,127.584
		c0.63,1.096,1.974,1.61,3.949,1.61c30.019,0,205.251-118.527,215.232-126.305c3.286-2.604,4.474-3.976,4.243-4.391
		C271.316,318.998,271.151,318.942,270.87,318.942"/>
	<path fill="#FDBD10" d="M279.743,329.297c-0.59,0-2.141,1.003-4.855,3.47c-10.032,9.075-176.291,181.28-160.755,194.312
		c0.516,0.424,1.159,0.635,1.933,0.635c22.771,0,154.455-181.721,161.381-192.784c2.19-3.553,2.825-5.246,2.485-5.577
		C279.89,329.315,279.821,329.297,279.743,329.297"/>
	<path fill="#FDBD10" d="M291.381,336.062c-0.469,0-1.62,1.437-3.488,4.952c-6.323,11.955-103.645,230.621-84.62,237.552
		c0.29,0.11,0.589,0.157,0.893,0.157c20.267,0,84.077-223.562,86.875-236.559c0.856-4.096,0.865-5.909,0.41-6.093
		C291.427,336.062,291.408,336.062,291.381,336.062"/>
	<path fill="#FDBD10" d="M304.589,338.437c-0.451,0-1.096,1.739-1.639,5.872c-1.873,13.383-18.541,252.158,1.739,252.158
		c20.405,0,3.466-238.794,1.593-252.158C305.702,340.167,305.081,338.437,304.589,338.437"/>
	<path fill="#FDBD10" d="M317.824,336.172c-0.028,0-0.051,0-0.074,0.01c-0.423,0.156-0.423,2.006,0.46,6.074
		c2.767,13.023,66.885,236.521,87.005,236.521c0.304,0,0.594-0.055,0.874-0.156c19.181-6.995-78.422-225.588-84.749-237.497
		C319.472,337.608,318.33,336.172,317.824,336.172"/>
	<path fill="#FDBD10" d="M329.504,329.49c-0.083,0-0.143,0.019-0.185,0.055c-0.312,0.295,0.29,2.016,2.531,5.56
		c6.926,11.081,138.892,192.684,161.505,192.684c0.765,0,1.399-0.202,1.905-0.626c15.633-13.134-150.838-185.137-160.852-194.193
		C331.648,330.493,330.093,329.49,329.504,329.49"/>
	<path fill="#FDBD10" d="M338.464,319.191c-0.271,0-0.438,0.055-0.502,0.156c-0.212,0.404,0.976,1.822,4.271,4.381
		c9.973,7.796,185.454,126.167,215.353,126.167c1.961,0,3.295-0.507,3.916-1.593c10.171-17.689-205.095-122.402-217.64-127.482
		C340.985,319.66,339.269,319.191,338.464,319.191"/>
	<path fill="#FDBD10" d="M346.885,306.149c-2.931,0-4.229,0.285-4.312,0.672c-0.083,0.45,1.5,1.394,5.499,2.642
		c10.985,3.57,181.892,46.276,233.82,46.276c8.9,0,14.303-1.261,14.818-4.179c3.543-20.101-234.575-44.896-248.063-45.384
		C348.003,306.158,347.419,306.149,346.885,306.149"/>
	<path fill="#FDBD10" d="M581.819,244.373c-52.049,0.009-222.739,42.871-233.705,46.415c-3.981,1.307-5.551,2.228-5.495,2.701
		c0.078,0.336,1.303,0.63,4.036,0.63c0.603,0,1.283-0.018,2.038-0.046c13.521-0.487,251.589-25.531,248.036-45.485
		C596.204,245.643,590.774,244.373,581.819,244.373"/>
	<path fill="#FDBD10" d="M557.599,150.208c-30.069,0.009-205.256,118.528-215.224,126.305c-3.313,2.586-4.486,3.98-4.257,4.395
		c0.056,0.097,0.221,0.157,0.497,0.157c0.796,0,2.531-0.475,5.412-1.662c12.526-5.08,227.663-110.032,217.534-127.594
		C560.922,150.719,559.582,150.208,557.599,150.208"/>
	<path fill="#FDBD10" d="M493.452,72.288c-22.798,0.009-154.459,181.721-161.381,192.793c-2.228,3.544-2.854,5.256-2.48,5.587
		c0.032,0.027,0.088,0.042,0.152,0.042c0.543,0,2.089-0.99,4.851-3.512c10.068-9.033,176.3-181.248,160.791-194.275
		C494.874,72.499,494.226,72.288,493.452,72.288"/>
	<path fill="#FDBD10" d="M405.334,21.271c-20.258,0.027-84.086,223.562-86.885,236.567c-0.855,4.105-0.855,5.909-0.404,6.093
		c0.027,0,0.046,0.01,0.064,0.01c0.46,0,1.647-1.445,3.475-4.961c6.346-11.938,103.686-230.641,84.634-237.553
		C405.933,21.326,405.638,21.271,405.334,21.271"/>
</g>
</svg>
